<svg xmlns="http://www.w3.org/2000/svg" xmlns:xlink="http://www.w3.org/1999/xlink" width="1000" zoomAndPan="magnify" viewBox="0 0 750 187.499995" height="250" preserveAspectRatio="xMidYMid meet" version="1.0"><defs><g/><clipPath id="2eae7e962b"><path d="M 0.996094 0 L 749 0 L 749 187 L 0.996094 187 Z M 0.996094 0 " clip-rule="nonzero"/></clipPath><clipPath id="525b0d3cea"><path d="M 691.027344 0 L 737.78125 0 L 737.78125 187 L 691.027344 187 Z M 691.027344 0 " clip-rule="nonzero"/></clipPath><clipPath id="33d0609458"><path d="M 12.21875 0 L 58.972656 0 L 58.972656 187 L 12.21875 187 Z M 12.21875 0 " clip-rule="nonzero"/></clipPath><clipPath id="aba0738c15"><path d="M 604.890625 0.0390625 L 638 0.0390625 L 638 40 L 604.890625 40 Z M 604.890625 0.0390625 " clip-rule="nonzero"/></clipPath><clipPath id="674a7ae916"><path d="M 618 0.0390625 L 649 0.0390625 L 649 46 L 618 46 Z M 618 0.0390625 " clip-rule="nonzero"/></clipPath><clipPath id="aa3df9940d"><path d="M 632 0.0390625 L 691.660156 0.0390625 L 691.660156 101.730469 L 632 101.730469 Z M 632 0.0390625 " clip-rule="nonzero"/></clipPath><clipPath id="f7232d0924"><path d="M 637 0.0390625 L 690 0.0390625 L 690 75 L 637 75 Z M 637 0.0390625 " clip-rule="nonzero"/></clipPath><clipPath id="efea99bfac"><path d="M 112 147 L 145.097656 147 L 145.097656 186.960938 L 112 186.960938 Z M 112 147 " clip-rule="nonzero"/></clipPath><clipPath id="ebd4d3c8c1"><path d="M 101 141 L 132 141 L 132 186.960938 L 101 186.960938 Z M 101 141 " clip-rule="nonzero"/></clipPath><clipPath id="bbfdcd86b3"><path d="M 58.332031 85.265625 L 118 85.265625 L 118 186.960938 L 58.332031 186.960938 Z M 58.332031 85.265625 " clip-rule="nonzero"/></clipPath><clipPath id="5432e1c8fd"><path d="M 60 112 L 113 112 L 113 186.960938 L 60 186.960938 Z M 60 112 " clip-rule="nonzero"/></clipPath><clipPath id="26ba7d3e3a"><path d="M 604.890625 147 L 638 147 L 638 186.996094 L 604.890625 186.996094 Z M 604.890625 147 " clip-rule="nonzero"/></clipPath><clipPath id="fea62c87e8"><path d="M 618 141 L 649 141 L 649 186.996094 L 618 186.996094 Z M 618 141 " clip-rule="nonzero"/></clipPath><clipPath id="4a672d5487"><path d="M 632 85.265625 L 691.660156 85.265625 L 691.660156 186.996094 L 632 186.996094 Z M 632 85.265625 " clip-rule="nonzero"/></clipPath><clipPath id="e77e52e10d"><path d="M 637 112 L 690 112 L 690 186.996094 L 637 186.996094 Z M 637 112 " clip-rule="nonzero"/></clipPath><clipPath id="77e2efe07e"><path d="M 112 0.00390625 L 145.097656 0.00390625 L 145.097656 40 L 112 40 Z M 112 0.00390625 " clip-rule="nonzero"/></clipPath><clipPath id="c880dc9807"><path d="M 101 0.00390625 L 132 0.00390625 L 132 46 L 101 46 Z M 101 0.00390625 " clip-rule="nonzero"/></clipPath><clipPath id="432d7fa7f1"><path d="M 58.332031 0.00390625 L 118 0.00390625 L 118 101.730469 L 58.332031 101.730469 Z M 58.332031 0.00390625 " clip-rule="nonzero"/></clipPath><clipPath id="eea3075116"><path d="M 60 0.00390625 L 113 0.00390625 L 113 75 L 60 75 Z M 60 0.00390625 " clip-rule="nonzero"/></clipPath><clipPath id="ee28d5316a"><path d="M 618.359375 146 L 737.769531 146 L 737.769531 187 L 618.359375 187 Z M 618.359375 146 " clip-rule="nonzero"/></clipPath><clipPath id="281a115526"><path d="M 706 72 L 737.769531 72 L 737.769531 165 L 706 165 Z M 706 72 " clip-rule="nonzero"/></clipPath><clipPath id="9dbfca00e6"><path d="M 666 58.070312 L 737.769531 58.070312 L 737.769531 183 L 666 183 Z M 666 58.070312 " clip-rule="nonzero"/></clipPath><clipPath id="baecafe82c"><path d="M 11.46875 146 L 131.148438 146 L 131.148438 187 L 11.46875 187 Z M 11.46875 146 " clip-rule="nonzero"/></clipPath><clipPath id="54191fbd6a"><path d="M 11.46875 72 L 43 72 L 43 165 L 11.46875 165 Z M 11.46875 72 " clip-rule="nonzero"/></clipPath><clipPath id="b4481060cd"><path d="M 11.46875 58.070312 L 83 58.070312 L 83 183 L 11.46875 183 Z M 11.46875 58.070312 " clip-rule="nonzero"/></clipPath></defs><g clip-path="url(#2eae7e962b)"><path fill="#ffffff" d="M 0.996094 0 L 749.003906 0 L 749.003906 194.480469 L 0.996094 194.480469 Z M 0.996094 0 " fill-opacity="1" fill-rule="nonzero"/><path fill="#ffffff" d="M 0.996094 0 L 749.003906 0 L 749.003906 187 L 0.996094 187 Z M 0.996094 0 " fill-opacity="1" fill-rule="nonzero"/><path fill="#ffffff" d="M 0.996094 0 L 749.003906 0 L 749.003906 187 L 0.996094 187 Z M 0.996094 0 " fill-opacity="1" fill-rule="nonzero"/></g><g clip-path="url(#525b0d3cea)"><path fill="#022950" d="M 691.027344 -8.175781 L 737.484375 -8.175781 L 737.484375 191.679688 L 691.027344 191.679688 Z M 691.027344 -8.175781 " fill-opacity="1" fill-rule="nonzero"/></g><g clip-path="url(#33d0609458)"><path fill="#022950" d="M 12.21875 -8.175781 L 58.675781 -8.175781 L 58.675781 191.679688 L 12.21875 191.679688 Z M 12.21875 -8.175781 " fill-opacity="1" fill-rule="nonzero"/></g><g clip-path="url(#aba0738c15)"><path fill="#022950" d="M 604.894531 0.00390625 C 607.214844 6.261719 610.292969 12.117188 614.136719 17.570312 C 622.019531 28.742188 631.269531 35.464844 637.398438 39.179688 C 633.191406 34.804688 629.445312 30.066406 626.167969 24.957031 C 620.179688 15.625 616.855469 6.753906 614.9375 0.00390625 Z M 604.894531 0.00390625 " fill-opacity="1" fill-rule="nonzero"/></g><g clip-path="url(#674a7ae916)"><path fill="#008a72" d="M 648.855469 45.144531 C 643.796875 38.503906 639.519531 31.390625 636.019531 23.8125 C 632.496094 16.167969 629.84375 8.230469 628.070312 0.00390625 L 618.734375 0.00390625 C 620.757812 7.777344 623.847656 15.101562 628 21.976562 C 634.9375 33.453125 643.242188 40.878906 648.855469 45.144531 Z M 648.855469 45.144531 " fill-opacity="1" fill-rule="nonzero"/></g><g clip-path="url(#aa3df9940d)"><path fill="#022950" d="M 682.109375 71.789062 C 688.574219 81.625 691.007812 92.320312 691.65625 101.730469 L 691.65625 0.00390625 L 632.582031 0.00390625 C 637.351562 23.328125 646.75 37.230469 654.699219 45.71875 C 665.273438 57.007812 674.058594 59.539062 682.109375 71.789062 Z M 682.109375 71.789062 " fill-opacity="1" fill-rule="nonzero"/></g><g clip-path="url(#f7232d0924)"><path fill="#008a72" d="M 689.511719 74.996094 C 686.046875 65.738281 683.273438 61.472656 682.460938 60.253906 C 676.539062 51.359375 672.40625 50.53125 664.492188 42.449219 C 651.960938 29.648438 646.660156 15.726562 644.902344 10.964844 C 643.578125 7.382812 642.496094 3.730469 641.65625 0.00390625 L 637.207031 0.00390625 C 642.125 21.734375 651.105469 34.898438 658.75 43.058594 C 669.324219 54.347656 678.109375 56.882812 686.160156 69.128906 C 687.398438 71.015625 688.515625 72.972656 689.511719 74.996094 Z M 689.511719 74.996094 " fill-opacity="1" fill-rule="nonzero"/></g><g clip-path="url(#efea99bfac)"><path fill="#022950" d="M 145.097656 186.996094 C 142.777344 180.738281 139.695312 174.882812 135.851562 169.429688 C 127.96875 158.253906 118.722656 151.53125 112.59375 147.820312 C 116.800781 152.191406 120.546875 156.933594 123.824219 162.039062 C 129.8125 171.371094 133.136719 180.246094 135.050781 186.996094 Z M 145.097656 186.996094 " fill-opacity="1" fill-rule="nonzero"/></g><g clip-path="url(#ebd4d3c8c1)"><path fill="#008a72" d="M 101.136719 141.855469 C 106.195312 148.496094 110.472656 155.605469 113.96875 163.1875 C 117.496094 170.832031 120.148438 178.765625 121.921875 186.996094 L 131.257812 186.996094 C 129.230469 179.222656 126.144531 171.898438 121.992188 165.023438 C 115.054688 153.546875 106.75 146.121094 101.136719 141.855469 Z M 101.136719 141.855469 " fill-opacity="1" fill-rule="nonzero"/></g><g clip-path="url(#bbfdcd86b3)"><path fill="#022950" d="M 67.882812 115.210938 C 61.414062 105.371094 58.984375 94.679688 58.332031 85.265625 L 58.332031 186.996094 L 117.40625 186.996094 C 112.640625 163.671875 103.242188 149.769531 95.292969 141.28125 C 84.71875 129.992188 75.933594 127.460938 67.882812 115.210938 Z M 67.882812 115.210938 " fill-opacity="1" fill-rule="nonzero"/></g><g clip-path="url(#5432e1c8fd)"><path fill="#008a72" d="M 60.480469 112.003906 C 63.945312 121.257812 66.71875 125.523438 67.53125 126.742188 C 73.453125 135.636719 77.585938 136.46875 85.5 144.550781 C 98.03125 157.351562 103.332031 171.273438 105.089844 176.03125 C 106.414062 179.613281 107.496094 183.269531 108.335938 186.996094 L 112.785156 186.996094 C 107.867188 165.265625 98.886719 152.097656 91.242188 143.941406 C 80.667969 132.648438 71.882812 130.117188 63.832031 117.867188 C 62.59375 115.984375 61.476562 114.027344 60.480469 112.003906 Z M 60.480469 112.003906 " fill-opacity="1" fill-rule="nonzero"/></g><g clip-path="url(#26ba7d3e3a)"><path fill="#022950" d="M 604.894531 186.996094 C 607.214844 180.738281 610.292969 174.882812 614.136719 169.429688 C 622.019531 158.253906 631.269531 151.53125 637.398438 147.820312 C 633.191406 152.191406 629.445312 156.933594 626.167969 162.039062 C 620.179688 171.371094 616.855469 180.246094 614.9375 186.996094 Z M 604.894531 186.996094 " fill-opacity="1" fill-rule="nonzero"/></g><g clip-path="url(#fea62c87e8)"><path fill="#008a72" d="M 648.855469 141.855469 C 643.796875 148.496094 639.519531 155.605469 636.019531 163.1875 C 632.496094 170.832031 629.84375 178.765625 628.070312 186.996094 L 618.734375 186.996094 C 620.757812 179.222656 623.847656 171.898438 628 165.023438 C 634.9375 153.546875 643.242188 146.121094 648.855469 141.855469 Z M 648.855469 141.855469 " fill-opacity="1" fill-rule="nonzero"/></g><g clip-path="url(#4a672d5487)"><path fill="#022950" d="M 682.109375 115.210938 C 688.574219 105.371094 691.007812 94.679688 691.65625 85.265625 L 691.65625 186.996094 L 632.582031 186.996094 C 637.351562 163.671875 646.75 149.769531 654.699219 141.28125 C 665.273438 129.992188 674.058594 127.460938 682.109375 115.210938 Z M 682.109375 115.210938 " fill-opacity="1" fill-rule="nonzero"/></g><g clip-path="url(#e77e52e10d)"><path fill="#008a72" d="M 689.511719 112.003906 C 686.046875 121.257812 683.273438 125.523438 682.460938 126.742188 C 676.539062 135.636719 672.40625 136.46875 664.492188 144.550781 C 651.960938 157.351562 646.660156 171.273438 644.902344 176.03125 C 643.578125 179.613281 642.496094 183.269531 641.65625 186.996094 L 637.207031 186.996094 C 642.125 165.265625 651.105469 152.097656 658.75 143.941406 C 669.324219 132.648438 678.109375 130.117188 686.160156 117.867188 C 687.398438 115.984375 688.515625 114.027344 689.511719 112.003906 Z M 689.511719 112.003906 " fill-opacity="1" fill-rule="nonzero"/></g><g clip-path="url(#77e2efe07e)"><path fill="#022950" d="M 145.097656 0.00390625 C 142.777344 6.261719 139.695312 12.117188 135.851562 17.570312 C 127.96875 28.742188 118.722656 35.464844 112.59375 39.179688 C 116.800781 34.804688 120.546875 30.066406 123.824219 24.957031 C 129.8125 15.625 133.136719 6.753906 135.050781 0.00390625 Z M 145.097656 0.00390625 " fill-opacity="1" fill-rule="nonzero"/></g><g clip-path="url(#c880dc9807)"><path fill="#008a72" d="M 101.136719 45.144531 C 106.195312 38.503906 110.472656 31.390625 113.96875 23.8125 C 117.496094 16.167969 120.148438 8.230469 121.921875 0.00390625 L 131.257812 0.00390625 C 129.230469 7.777344 126.144531 15.101562 121.992188 21.976562 C 115.054688 33.453125 106.75 40.878906 101.136719 45.144531 Z M 101.136719 45.144531 " fill-opacity="1" fill-rule="nonzero"/></g><g clip-path="url(#432d7fa7f1)"><path fill="#022950" d="M 67.882812 71.789062 C 61.414062 81.625 58.984375 92.320312 58.332031 101.730469 L 58.332031 0.00390625 L 117.40625 0.00390625 C 112.640625 23.328125 103.242188 37.230469 95.292969 45.71875 C 84.71875 57.007812 75.933594 59.539062 67.882812 71.789062 Z M 67.882812 71.789062 " fill-opacity="1" fill-rule="nonzero"/></g><g clip-path="url(#eea3075116)"><path fill="#008a72" d="M 60.480469 74.996094 C 63.945312 65.738281 66.71875 61.472656 67.53125 60.253906 C 73.453125 51.359375 77.585938 50.53125 85.5 42.449219 C 98.03125 29.648438 103.332031 15.726562 105.089844 10.964844 C 106.414062 7.382812 107.496094 3.730469 108.335938 0.00390625 L 112.785156 0.00390625 C 107.867188 21.734375 98.886719 34.898438 91.242188 43.058594 C 80.667969 54.347656 71.882812 56.882812 63.832031 69.128906 C 62.59375 71.015625 61.476562 72.972656 60.480469 74.996094 Z M 60.480469 74.996094 " fill-opacity="1" fill-rule="nonzero"/></g><g clip-path="url(#ee28d5316a)"><path fill="#022950" d="M 737.769531 146.289062 C 737.769531 146.289062 698.722656 190.464844 618.089844 191.949219 L 737.769531 191.949219 Z M 737.769531 146.289062 " fill-opacity="1" fill-rule="nonzero"/></g><g clip-path="url(#281a115526)"><path fill="#008a72" d="M 706.386719 164.734375 C 727.417969 152.515625 737.769531 140.800781 737.769531 140.800781 L 737.769531 72.402344 C 736.789062 114.300781 721.160156 144.960938 706.386719 164.734375 Z M 706.386719 164.734375 " fill-opacity="1" fill-rule="nonzero"/></g><g clip-path="url(#9dbfca00e6)"><path fill="#022950" d="M 666.246094 182.175781 C 678.207031 178.472656 688.640625 174.050781 697.570312 169.492188 C 715.082031 148.042969 736.570312 111.097656 737.769531 58.082031 C 735.710938 123.714844 690.640625 164.714844 666.246094 182.175781 Z M 666.246094 182.175781 " fill-opacity="1" fill-rule="nonzero"/></g><g clip-path="url(#baecafe82c)"><path fill="#022950" d="M 11.46875 146.289062 C 11.46875 146.289062 50.515625 190.464844 131.148438 191.949219 L 11.46875 191.949219 Z M 11.46875 146.289062 " fill-opacity="1" fill-rule="nonzero"/></g><g clip-path="url(#54191fbd6a)"><path fill="#008a72" d="M 42.855469 164.734375 C 21.820312 152.515625 11.46875 140.800781 11.46875 140.800781 L 11.46875 72.402344 C 12.449219 114.300781 28.082031 144.960938 42.855469 164.734375 Z M 42.855469 164.734375 " fill-opacity="1" fill-rule="nonzero"/></g><g clip-path="url(#b4481060cd)"><path fill="#022950" d="M 82.992188 182.175781 C 71.035156 178.472656 60.597656 174.050781 51.667969 169.492188 C 34.160156 148.042969 12.671875 111.097656 11.46875 58.082031 C 13.527344 123.714844 58.597656 164.714844 82.992188 182.175781 Z M 82.992188 182.175781 " fill-opacity="1" fill-rule="nonzero"/></g><g fill="#000000" fill-opacity="1"><g transform="translate(163.102175, 103.948485)"><g><path d="M 31.203125 -4.484375 C 29.890625 -2.910156 28.03125 -1.6875 25.625 -0.8125 C 23.226562 0.0507812 20.570312 0.484375 17.65625 0.484375 C 14.582031 0.484375 11.890625 -0.179688 9.578125 -1.515625 C 7.265625 -2.859375 5.476562 -4.800781 4.21875 -7.34375 C 2.96875 -9.894531 2.320312 -12.890625 2.28125 -16.328125 L 2.28125 -18.75 C 2.28125 -22.28125 2.878906 -25.335938 4.078125 -27.921875 C 5.273438 -30.515625 6.992188 -32.5 9.234375 -33.875 C 11.484375 -35.25 14.117188 -35.9375 17.140625 -35.9375 C 21.335938 -35.9375 24.617188 -34.929688 26.984375 -32.921875 C 29.359375 -30.921875 30.765625 -28.003906 31.203125 -24.171875 L 24.109375 -24.171875 C 23.773438 -26.203125 23.050781 -27.6875 21.9375 -28.625 C 20.832031 -29.570312 19.304688 -30.046875 17.359375 -30.046875 C 14.878906 -30.046875 12.988281 -29.109375 11.6875 -27.234375 C 10.382812 -25.367188 9.726562 -22.597656 9.71875 -18.921875 L 9.71875 -16.65625 C 9.71875 -12.9375 10.421875 -10.125 11.828125 -8.21875 C 13.242188 -6.320312 15.316406 -5.375 18.046875 -5.375 C 20.785156 -5.375 22.738281 -5.960938 23.90625 -7.140625 L 23.90625 -13.25 L 17.265625 -13.25 L 17.265625 -18.625 L 31.203125 -18.625 Z M 31.203125 -4.484375 "/></g></g></g><g fill="#000000" fill-opacity="1"><g transform="translate(197.063904, 103.948485)"><g><path d="M 24.484375 -15.359375 L 10.46875 -15.359375 L 10.46875 -5.875 L 26.921875 -5.875 L 26.921875 0 L 3.171875 0 L 3.171875 -35.453125 L 26.875 -35.453125 L 26.875 -29.53125 L 10.46875 -29.53125 L 10.46875 -21.078125 L 24.484375 -21.078125 Z M 24.484375 -15.359375 "/></g></g></g><g fill="#000000" fill-opacity="1"><g transform="translate(225.109719, 103.948485)"><g><path d="M 29.84375 -29.53125 L 18.984375 -29.53125 L 18.984375 0 L 11.6875 0 L 11.6875 -29.53125 L 0.96875 -29.53125 L 0.96875 -35.453125 L 29.84375 -35.453125 Z M 29.84375 -29.53125 "/></g></g></g><g fill="#000000" fill-opacity="1"><g transform="translate(396.251106, 103.948485)"><g><path d="M 23.171875 -7.296875 L 10.375 -7.296875 L 7.9375 0 L 0.171875 0 L 13.359375 -35.453125 L 20.140625 -35.453125 L 33.40625 0 L 25.640625 0 Z M 12.34375 -13.21875 L 21.203125 -13.21875 L 16.75 -26.484375 Z M 12.34375 -13.21875 "/></g></g></g><g fill="#000000" fill-opacity="1"><g transform="translate(429.798964, 103.948485)"><g><path d="M 31.984375 0 L 24.6875 0 L 10.46875 -23.328125 L 10.46875 0 L 3.171875 0 L 3.171875 -35.453125 L 10.46875 -35.453125 L 24.703125 -12.078125 L 24.703125 -35.453125 L 31.984375 -35.453125 Z M 31.984375 0 "/></g></g></g><g fill="#000000" fill-opacity="1"><g transform="translate(465.002305, 103.948485)"><g><path d="M 21.546875 -9.296875 C 21.546875 -10.679688 21.054688 -11.738281 20.078125 -12.46875 C 19.109375 -13.207031 17.359375 -13.988281 14.828125 -14.8125 C 12.296875 -15.632812 10.289062 -16.441406 8.8125 -17.234375 C 4.789062 -19.410156 2.78125 -22.34375 2.78125 -26.03125 C 2.78125 -27.9375 3.316406 -29.640625 4.390625 -31.140625 C 5.472656 -32.648438 7.023438 -33.828125 9.046875 -34.671875 C 11.066406 -35.515625 13.332031 -35.9375 15.84375 -35.9375 C 18.375 -35.9375 20.628906 -35.476562 22.609375 -34.5625 C 24.597656 -33.644531 26.140625 -32.347656 27.234375 -30.671875 C 28.328125 -29.003906 28.875 -27.109375 28.875 -24.984375 L 21.5625 -24.984375 C 21.5625 -26.597656 21.050781 -27.851562 20.03125 -28.75 C 19.007812 -29.65625 17.578125 -30.109375 15.734375 -30.109375 C 13.941406 -30.109375 12.550781 -29.726562 11.5625 -28.96875 C 10.570312 -28.21875 10.078125 -27.226562 10.078125 -26 C 10.078125 -24.84375 10.65625 -23.875 11.8125 -23.09375 C 12.976562 -22.320312 14.6875 -21.59375 16.9375 -20.90625 C 21.09375 -19.65625 24.117188 -18.101562 26.015625 -16.25 C 27.921875 -14.40625 28.875 -12.101562 28.875 -9.34375 C 28.875 -6.28125 27.710938 -3.875 25.390625 -2.125 C 23.066406 -0.382812 19.941406 0.484375 16.015625 0.484375 C 13.285156 0.484375 10.800781 -0.0078125 8.5625 -1 C 6.320312 -2 4.613281 -3.367188 3.4375 -5.109375 C 2.269531 -6.847656 1.6875 -8.863281 1.6875 -11.15625 L 9 -11.15625 C 9 -7.238281 11.335938 -5.28125 16.015625 -5.28125 C 17.753906 -5.28125 19.109375 -5.632812 20.078125 -6.34375 C 21.054688 -7.050781 21.546875 -8.035156 21.546875 -9.296875 Z M 21.546875 -9.296875 "/></g></g></g><g fill="#000000" fill-opacity="1"><g transform="translate(495.653069, 103.948485)"><g><path d="M 30.765625 -10.21875 L 35.546875 -35.453125 L 42.828125 -35.453125 L 34.953125 0 L 27.609375 0 L 21.84375 -23.71875 L 16.0625 0 L 8.71875 0 L 0.859375 -35.453125 L 8.125 -35.453125 L 12.921875 -10.28125 L 18.765625 -35.453125 L 24.953125 -35.453125 Z M 30.765625 -10.21875 "/></g></g></g><g fill="#000000" fill-opacity="1"><g transform="translate(539.255547, 103.948485)"><g><path d="M 24.484375 -15.359375 L 10.46875 -15.359375 L 10.46875 -5.875 L 26.921875 -5.875 L 26.921875 0 L 3.171875 0 L 3.171875 -35.453125 L 26.875 -35.453125 L 26.875 -29.53125 L 10.46875 -29.53125 L 10.46875 -21.078125 L 24.484375 -21.078125 Z M 24.484375 -15.359375 "/></g></g></g><g fill="#000000" fill-opacity="1"><g transform="translate(567.301362, 103.948485)"><g><path d="M 16.28125 -12.96875 L 10.46875 -12.96875 L 10.46875 0 L 3.171875 0 L 3.171875 -35.453125 L 16.328125 -35.453125 C 20.515625 -35.453125 23.742188 -34.515625 26.015625 -32.640625 C 28.296875 -30.773438 29.4375 -28.140625 29.4375 -24.734375 C 29.4375 -22.316406 28.910156 -20.300781 27.859375 -18.6875 C 26.816406 -17.070312 25.234375 -15.785156 23.109375 -14.828125 L 30.765625 -0.34375 L 30.765625 0 L 22.9375 0 Z M 10.46875 -18.890625 L 16.359375 -18.890625 C 18.191406 -18.890625 19.609375 -19.351562 20.609375 -20.28125 C 21.617188 -21.21875 22.125 -22.507812 22.125 -24.15625 C 22.125 -25.820312 21.648438 -27.132812 20.703125 -28.09375 C 19.753906 -29.050781 18.296875 -29.53125 16.328125 -29.53125 L 10.46875 -29.53125 Z M 10.46875 -18.890625 "/></g></g></g><g fill="#000000" fill-opacity="1"><g transform="translate(599.12069, 103.948485)"><g><path d="M 21.546875 -9.296875 C 21.546875 -10.679688 21.054688 -11.738281 20.078125 -12.46875 C 19.109375 -13.207031 17.359375 -13.988281 14.828125 -14.8125 C 12.296875 -15.632812 10.289062 -16.441406 8.8125 -17.234375 C 4.789062 -19.410156 2.78125 -22.34375 2.78125 -26.03125 C 2.78125 -27.9375 3.316406 -29.640625 4.390625 -31.140625 C 5.472656 -32.648438 7.023438 -33.828125 9.046875 -34.671875 C 11.066406 -35.515625 13.332031 -35.9375 15.84375 -35.9375 C 18.375 -35.9375 20.628906 -35.476562 22.609375 -34.5625 C 24.597656 -33.644531 26.140625 -32.347656 27.234375 -30.671875 C 28.328125 -29.003906 28.875 -27.109375 28.875 -24.984375 L 21.5625 -24.984375 C 21.5625 -26.597656 21.050781 -27.851562 20.03125 -28.75 C 19.007812 -29.65625 17.578125 -30.109375 15.734375 -30.109375 C 13.941406 -30.109375 12.550781 -29.726562 11.5625 -28.96875 C 10.570312 -28.21875 10.078125 -27.226562 10.078125 -26 C 10.078125 -24.84375 10.65625 -23.875 11.8125 -23.09375 C 12.976562 -22.320312 14.6875 -21.59375 16.9375 -20.90625 C 21.09375 -19.65625 24.117188 -18.101562 26.015625 -16.25 C 27.921875 -14.40625 28.875 -12.101562 28.875 -9.34375 C 28.875 -6.28125 27.710938 -3.875 25.390625 -2.125 C 23.066406 -0.382812 19.941406 0.484375 16.015625 0.484375 C 13.285156 0.484375 10.800781 -0.0078125 8.5625 -1 C 6.320312 -2 4.613281 -3.367188 3.4375 -5.109375 C 2.269531 -6.847656 1.6875 -8.863281 1.6875 -11.15625 L 9 -11.15625 C 9 -7.238281 11.335938 -5.28125 16.015625 -5.28125 C 17.753906 -5.28125 19.109375 -5.632812 20.078125 -6.34375 C 21.054688 -7.050781 21.546875 -8.035156 21.546875 -9.296875 Z M 21.546875 -9.296875 "/></g></g></g><g fill="#008a72" fill-opacity="1"><g transform="translate(264.450093, 94.964017)"><g><path d="M 6.5 0 L 2.15625 0 L 2.15625 -21.09375 L 6.5 -21.09375 Z M 6.5 0 "/></g></g></g><g fill="#008a72" fill-opacity="1"><g transform="translate(273.098048, 94.964017)"><g><path d="M 19.03125 0 L 14.6875 0 L 6.234375 -13.875 L 6.234375 0 L 1.890625 0 L 1.890625 -21.09375 L 6.234375 -21.09375 L 14.703125 -7.1875 L 14.703125 -21.09375 L 19.03125 -21.09375 Z M 19.03125 0 "/></g></g></g><g fill="#008a72" fill-opacity="1"><g transform="translate(294.044349, 94.964017)"><g><path d="M 12.828125 -5.53125 C 12.828125 -6.351562 12.535156 -6.984375 11.953125 -7.421875 C 11.367188 -7.859375 10.320312 -8.320312 8.8125 -8.8125 C 7.3125 -9.300781 6.125 -9.78125 5.25 -10.25 C 2.851562 -11.550781 1.65625 -13.296875 1.65625 -15.484375 C 1.65625 -16.628906 1.972656 -17.644531 2.609375 -18.53125 C 3.253906 -19.425781 4.175781 -20.125 5.375 -20.625 C 6.582031 -21.132812 7.9375 -21.390625 9.4375 -21.390625 C 10.9375 -21.390625 12.273438 -21.113281 13.453125 -20.5625 C 14.640625 -20.019531 15.554688 -19.25 16.203125 -18.25 C 16.859375 -17.257812 17.1875 -16.128906 17.1875 -14.859375 L 12.84375 -14.859375 C 12.84375 -15.828125 12.535156 -16.578125 11.921875 -17.109375 C 11.316406 -17.648438 10.460938 -17.921875 9.359375 -17.921875 C 8.296875 -17.921875 7.46875 -17.695312 6.875 -17.25 C 6.289062 -16.800781 6 -16.207031 6 -15.46875 C 6 -14.78125 6.34375 -14.203125 7.03125 -13.734375 C 7.71875 -13.273438 8.734375 -12.847656 10.078125 -12.453125 C 12.554688 -11.703125 14.359375 -10.773438 15.484375 -9.671875 C 16.617188 -8.578125 17.1875 -7.207031 17.1875 -5.5625 C 17.1875 -3.738281 16.492188 -2.304688 15.109375 -1.265625 C 13.734375 -0.222656 11.875 0.296875 9.53125 0.296875 C 7.90625 0.296875 6.425781 0 5.09375 -0.59375 C 3.757812 -1.195312 2.742188 -2.015625 2.046875 -3.046875 C 1.347656 -4.078125 1 -5.273438 1 -6.640625 L 5.359375 -6.640625 C 5.359375 -4.304688 6.75 -3.140625 9.53125 -3.140625 C 10.5625 -3.140625 11.367188 -3.347656 11.953125 -3.765625 C 12.535156 -4.191406 12.828125 -4.78125 12.828125 -5.53125 Z M 12.828125 -5.53125 "/></g></g></g><g fill="#008a72" fill-opacity="1"><g transform="translate(312.281827, 94.964017)"><g><path d="M 17.765625 -17.578125 L 11.296875 -17.578125 L 11.296875 0 L 6.953125 0 L 6.953125 -17.578125 L 0.578125 -17.578125 L 0.578125 -21.09375 L 17.765625 -21.09375 Z M 17.765625 -17.578125 "/></g></g></g><g fill="#008a72" fill-opacity="1"><g transform="translate(330.63519, 94.964017)"><g><path d="M 13.796875 -4.34375 L 6.171875 -4.34375 L 4.71875 0 L 0.09375 0 L 7.953125 -21.09375 L 11.984375 -21.09375 L 19.875 0 L 15.25 0 Z M 7.34375 -7.859375 L 12.625 -7.859375 L 9.96875 -15.765625 Z M 7.34375 -7.859375 "/></g></g></g><g fill="#008a72" fill-opacity="1"><g transform="translate(350.596464, 94.964017)"><g><path d="M 19.03125 0 L 14.6875 0 L 6.234375 -13.875 L 6.234375 0 L 1.890625 0 L 1.890625 -21.09375 L 6.234375 -21.09375 L 14.703125 -7.1875 L 14.703125 -21.09375 L 19.03125 -21.09375 Z M 19.03125 0 "/></g></g></g><g fill="#008a72" fill-opacity="1"><g transform="translate(371.542766, 94.964017)"><g><path d="M 17.765625 -17.578125 L 11.296875 -17.578125 L 11.296875 0 L 6.953125 0 L 6.953125 -17.578125 L 0.578125 -17.578125 L 0.578125 -21.09375 L 17.765625 -21.09375 Z M 17.765625 -17.578125 "/></g></g></g></svg>